<?xml version="1.0" encoding="utf-8"?>
<!-- Generator: Adobe Illustrator 26.5.0, SVG Export Plug-In . SVG Version: 6.00 Build 0)  -->
<svg version="1.1" id="Layer_1" xmlns="http://www.w3.org/2000/svg" xmlns:xlink="http://www.w3.org/1999/xlink" x="0px" y="0px"
	 viewBox="0 0 1005 600" style="enable-background:new 0 0 1005 600;" xml:space="preserve">
<style type="text/css">
	.st0{fill:#FFFFFF;}
	.st1{fill:#5E4FA2;}
	.st2{fill:#9E0142;}
	.st3{fill:none;stroke:#000000;}
	.st4{font-family:'Helvetica';}
	.st5{font-size:10px;}
	.st6{font-family:'Arial-BoldMT';}
	.st7{font-size:12px;}
	.st8{fill:none;stroke:#CCCCCC;}
	.st9{font-family:'ArialMT';}
</style>
<rect id="background" x="-49" y="-27" class="st0" width="1078" height="676"/>
<g id="viz">
	<g transform="translate(0,0)">
		<g transform="translate(50,20)">
			<g>
				<rect id="undefined_-_vsearch" x="26" y="21.6" class="st1" width="22.6" height="538.4"/>
				<rect id="undefined_-_cat" x="53.2" y="49.7" class="st2" width="22.6" height="510.3"/>
				
					<rect id="undefined_-_vsearch_00000156578755013406908030000002935168039300208288_" x="106.4" y="79.7" class="st1" width="22.6" height="480.3"/>
				
					<rect id="undefined_-_cat_00000164485184233665426940000004214586765802455198_" x="133.6" y="97.2" class="st2" width="22.6" height="462.8"/>
				
					<rect id="undefined_-_vsearch_00000097489449359284338160000018008735632121004724_" x="186.8" y="57" class="st1" width="22.6" height="503"/>
				
					<rect id="undefined_-_cat_00000082356075688714487960000011796287953374405518_" x="214" y="76.6" class="st2" width="22.6" height="483.4"/>
				
					<rect id="undefined_-_vsearch_00000013194485943557733950000003001911731631483798_" x="267.2" y="69.4" class="st1" width="22.6" height="490.6"/>
				
					<rect id="undefined_-_cat_00000066501541644458922650000006152073825501302401_" x="294.4" y="90.8" class="st2" width="22.6" height="469.2"/>
				
					<rect id="undefined_-_vsearch_00000021086442569898902090000016268243894842760870_" x="347.6" y="73.1" class="st1" width="22.6" height="486.9"/>
				
					<rect id="undefined_-_cat_00000137130927572116907400000000299366504776981378_" x="374.8" y="91.6" class="st2" width="22.6" height="468.4"/>
				
					<rect id="undefined_-_vsearch_00000091016431442605779970000016775419262987779490_" x="428" y="40" class="st1" width="22.6" height="520"/>
				
					<rect id="undefined_-_cat_00000115512120459595197170000010088321027651649469_" x="455.2" y="63.3" class="st2" width="22.6" height="496.7"/>
				
					<rect id="undefined_-_vsearch_00000051377775474451531030000016412674865359850144_" x="508.4" y="79.8" class="st1" width="22.6" height="480.2"/>
				
					<rect id="undefined_-_cat_00000070118896871075311140000009682074995722488708_" x="535.6" y="100.9" class="st2" width="22.6" height="459.1"/>
				
					<rect id="undefined_-_vsearch_00000170240093085232057940000010367962131430108062_" x="588.8" y="37.4" class="st1" width="22.6" height="522.6"/>
				
					<rect id="undefined_-_cat_00000072256998958528641740000006176636797201045913_" x="616" y="61.1" class="st2" width="22.6" height="498.9"/>
				
					<rect id="undefined_-_vsearch_00000165925504873277815210000013827086907170589099_" x="669.2" y="64.3" class="st1" width="22.6" height="495.7"/>
				
					<rect id="undefined_-_cat_00000129903983891529927910000006762857066856916919_" x="696.4" y="89.4" class="st2" width="22.6" height="470.6"/>
			</g>
			<g id="xAxis" transform="translate(0,560)">
				<path class="st3" d="M0.5,0.5h745"/>
				<g transform="translate(50.886208894683485,0)">
					<line class="st3" x1="0" y1="0" x2="0" y2="6"/>
					<text transform="matrix(1 0 0 1 -5.5615 16.1)" class="st4 st5">20</text>
				</g>
				<g transform="translate(131.2896566710126,0)">
					<line class="st3" x1="0" y1="0" x2="0" y2="6"/>
					<text transform="matrix(1 0 0 1 -5.5615 16.1)" class="st4 st5">30</text>
				</g>
				<g transform="translate(211.69310444734174,0)">
					<line class="st3" x1="0" y1="0" x2="0" y2="6"/>
					<text transform="matrix(1 0 0 1 -5.5615 16.1)" class="st4 st5">40</text>
				</g>
				<g transform="translate(292.09655222367087,0)">
					<line class="st3" x1="0" y1="0" x2="0" y2="6"/>
					<text transform="matrix(1 0 0 1 -5.5615 16.1)" class="st4 st5">50</text>
				</g>
				<g transform="translate(372.5,0)">
					<line class="st3" x1="0" y1="0" x2="0" y2="6"/>
					<text transform="matrix(1 0 0 1 -5.5615 16.1)" class="st4 st5">60</text>
				</g>
				<g transform="translate(452.90344777632913,0)">
					<line class="st3" x1="0" y1="0" x2="0" y2="6"/>
					<text transform="matrix(1 0 0 1 -5.5615 16.1)" class="st4 st5">70</text>
				</g>
				<g transform="translate(533.3068955526583,0)">
					<line class="st3" x1="0" y1="0" x2="0" y2="6"/>
					<text transform="matrix(1 0 0 1 -5.5615 16.1)" class="st4 st5">80</text>
				</g>
				<g transform="translate(613.7103433289874,0)">
					<line class="st3" x1="0" y1="0" x2="0" y2="6"/>
					<text transform="matrix(1 0 0 1 -5.5615 16.1)" class="st4 st5">90</text>
				</g>
				<g transform="translate(694.1137911053165,0)">
					<line class="st3" x1="0" y1="0" x2="0" y2="6"/>
					<text transform="matrix(1 0 0 1 -8.3423 16.1)" class="st4 st5">100</text>
				</g>
			</g>
			<g id="yAxis">
				<path class="st3" d="M0.5,560.5V0.5"/>
				<g transform="translate(0,560.5)">
					<line class="st3" x1="0" y1="0" x2="-6" y2="0"/>
					<text transform="matrix(1 0 0 1 -22.9014 3.2)" class="st4 st5">0.0</text>
				</g>
				<g transform="translate(0,517.4230769230769)">
					<line class="st3" x1="0" y1="0" x2="-6" y2="0"/>
					<text transform="matrix(1 0 0 1 -22.9014 3.2)" class="st4 st5">0.2</text>
				</g>
				<g transform="translate(0,474.34615384615387)">
					<line class="st3" x1="0" y1="0" x2="-6" y2="0"/>
					<text transform="matrix(1 0 0 1 -22.9014 3.2)" class="st4 st5">0.4</text>
				</g>
				<g transform="translate(0,431.2692307692308)">
					<line class="st3" x1="0" y1="0" x2="-6" y2="0"/>
					<text transform="matrix(1 0 0 1 -22.9014 3.2)" class="st4 st5">0.6</text>
				</g>
				<g transform="translate(0,388.1923076923077)">
					<line class="st3" x1="0" y1="0" x2="-6" y2="0"/>
					<text transform="matrix(1 0 0 1 -22.9014 3.2)" class="st4 st5">0.8</text>
				</g>
				<g transform="translate(0,345.11538461538464)">
					<line class="st3" x1="0" y1="0" x2="-6" y2="0"/>
					<text transform="matrix(1 0 0 1 -22.9014 3.2)" class="st4 st5">1.0</text>
				</g>
				<g transform="translate(0,302.0384615384616)">
					<line class="st3" x1="0" y1="0" x2="-6" y2="0"/>
					<text transform="matrix(1 0 0 1 -22.9014 3.2)" class="st4 st5">1.2</text>
				</g>
				<g transform="translate(0,258.96153846153845)">
					<line class="st3" x1="0" y1="0" x2="-6" y2="0"/>
					<text transform="matrix(1 0 0 1 -22.9014 3.2)" class="st4 st5">1.4</text>
				</g>
				<g transform="translate(0,215.88461538461536)">
					<line class="st3" x1="0" y1="0" x2="-6" y2="0"/>
					<text transform="matrix(1 0 0 1 -22.9014 3.2)" class="st4 st5">1.6</text>
				</g>
				<g transform="translate(0,172.80769230769232)">
					<line class="st3" x1="0" y1="0" x2="-6" y2="0"/>
					<text transform="matrix(1 0 0 1 -22.9014 3.2)" class="st4 st5">1.8</text>
				</g>
				<g transform="translate(0,129.73076923076928)">
					<line class="st3" x1="0" y1="0" x2="-6" y2="0"/>
					<text transform="matrix(1 0 0 1 -22.9014 3.2)" class="st4 st5">2.0</text>
				</g>
				<g transform="translate(0,86.65384615384616)">
					<line class="st3" x1="0" y1="0" x2="-6" y2="0"/>
					<text transform="matrix(1 0 0 1 -22.9014 3.2)" class="st4 st5">2.2</text>
				</g>
				<g transform="translate(0,43.57692307692311)">
					<line class="st3" x1="0" y1="0" x2="-6" y2="0"/>
					<text transform="matrix(1 0 0 1 -22.9014 3.2)" class="st4 st5">2.4</text>
				</g>
				<g transform="translate(0,0.5)">
					<line class="st3" x1="0" y1="0" x2="-6" y2="0"/>
					<text transform="matrix(1 0 0 1 -22.9014 3.2)" class="st4 st5">2.6</text>
				</g>
			</g>
			<text transform="matrix(1 0 0 1 289.7917 611.3828)" class="st6 st7">Reads Sampling Depth Coverage</text>
			<text transform="matrix(1.294086e-03 -1 1 1.294086e-03 -33.9862 341.3255)" class="st6 st7">% Mapped Reads</text>
		</g>
	</g>
	<g id="grid">
		<rect class="st8" width="805" height="600"/>
	</g>
</g>
<g id="legend" transform="translate(805,20)">
	<g transform="translate(5,0)">
		<g transform="translate(0,0)">
			<g transform="translate(0,16)">
				<g transform="translate(0, 0)">
					<rect class="st2" width="15" height="15"/>
					<text transform="matrix(1 0 0 1 20 12.5)" class="st9 st5">cat</text>
				</g>
				<g transform="translate(0, 21)">
					<rect class="st1" width="15" height="15"/>
					<text transform="matrix(1 0 0 1 20 12.5)" class="st9 st5">vsearch</text>
				</g>
			</g>
			<text class="st6 st7">Merging Tools</text>
		</g>
	</g>
</g>
</svg>
